<?xml version="1.0" encoding="UTF-8" standalone="no"?>
<!DOCTYPE svg PUBLIC "-//W3C//DTD SVG 1.1//EN" "http://www.w3.org/Graphics/SVG/1.1/DTD/svg11.dtd">
<svg xmlns="http://www.w3.org/2000/svg" version="1.1" viewBox="0.00 0.00 150.00 150.00">
<g stroke-width="2.00" fill="none" stroke-linecap="butt">
<path stroke="#5bd5f8" vector-effect="non-scaling-stroke" d="
  M 25.28 10.92
  Q 26.08 14.65 28.56 18.16"
/>
<path stroke="#348ebf" vector-effect="non-scaling-stroke" d="
  M 28.56 18.16
  Q 28.02 24.15 28.98 29.82
  C 29.45 32.60 29.40 34.51 29.60 36.92
  A 1.92 1.70 -63.4 0 0 29.76 37.52
  L 31.08 40.28"
/>
<path stroke="#3cbaee" vector-effect="non-scaling-stroke" d="
  M 31.08 40.28
  L 31.17 41.80
  A 0.47 0.47 0.0 0 1 30.29 42.05
  Q 28.49 38.63 24.92 36.84
  Q 23.10 35.93 21.77 31.87"
/>
<path stroke="#35a7dd" vector-effect="non-scaling-stroke" d="
  M 22.28 28.30
  Q 22.85 27.78 22.46 26.79"
/>
<path stroke="#309fd6" vector-effect="non-scaling-stroke" d="
  M 22.57 25.79
  Q 22.72 25.07 22.60 24.24"
/>
<path stroke="#24638d" vector-effect="non-scaling-stroke" d="
  M 32.74 46.25
  L 26.52 51.16"
/>
<path stroke="#1f537f" vector-effect="non-scaling-stroke" d="
  M 52.61 36.63
  L 48.13 36.52"
/>
<path stroke="#183158" vector-effect="non-scaling-stroke" d="
  M 48.13 36.52
  L 33.41 26.79
  A 0.45 0.44 14.2 0 0 32.72 27.20
  L 34.26 42.31"
/>
<path stroke="#1d416a" vector-effect="non-scaling-stroke" d="
  M 34.26 42.31
  Q 34.26 44.20 33.68 45.75"
/>
<path stroke="#1c375e" vector-effect="non-scaling-stroke" d="
  M 33.68 45.75
  L 32.74 46.25"
/>
<path stroke="#2784b5" vector-effect="non-scaling-stroke" d="
  M 32.74 46.25
  Q 32.41 43.09 31.08 40.28"
/>
<path stroke="#469ab9" vector-effect="non-scaling-stroke" d="
  M 50.89 26.02
  Q 52.44 31.18 52.61 36.63"
/>
<path stroke="#469fc0" vector-effect="non-scaling-stroke" d="
  M 52.61 36.63
  Q 41.64 26.75 35.06 21.94
  Q 33.83 21.04 28.56 18.16"
/>
<path stroke="#316d97" vector-effect="non-scaling-stroke" d="
  M 43.73 62.32
  Q 44.86 63.36 46.48 63.43
  A 0.21 0.20 89.9 0 1 46.67 63.63
  L 46.67 63.64
  A 0.06 0.05 -7.0 0 1 46.62 63.69
  L 33.76 65.67
  A 0.57 0.57 0.0 0 0 33.76 66.80
  Q 36.30 67.19 36.40 67.28
  A 0.42 0.42 0.0 0 1 36.18 67.99
  L 29.69 69.19
  A 0.06 0.06 0.0 0 0 29.64 69.25
  L 29.64 69.49
  A 0.41 0.40 90.0 0 0 30.02 69.88
  Q 32.59 70.00 31.49 70.83
  A 0.37 0.33 14.9 0 1 31.35 70.90
  L 25.56 72.25
  A 0.42 0.41 -48.1 0 0 25.60 73.07
  L 26.79 73.21
  A 0.35 0.35 0.0 0 1 26.89 73.88
  L 9.69 81.52"
/>
<path stroke="#24638d" vector-effect="non-scaling-stroke" d="
  M 9.69 81.52
  L 7.82 82.34"
/>
<path stroke="#277fae" vector-effect="non-scaling-stroke" d="
  M 74.85 82.16
  L 71.75 82.50"
/>
<path stroke="#182c51" vector-effect="non-scaling-stroke" d="
  M 71.75 82.50
  Q 71.07 78.19 68.87 76.20"
/>
<path stroke="#3489b8" vector-effect="non-scaling-stroke" d="
  M 68.87 76.20
  Q 69.23 75.74 69.14 75.49
  Q 65.96 67.36 63.21 59.26
  A 0.44 0.43 45.6 0 0 62.39 59.25
  L 60.70 63.86"
/>
<path stroke="#1d3c63" vector-effect="non-scaling-stroke" d="
  M 60.70 63.86
  Q 58.88 60.81 54.63 57.90
  Q 49.01 54.04 36.50 42.85"
/>
<path stroke="#182c51" vector-effect="non-scaling-stroke" d="
  M 36.50 42.85
  L 48.13 36.52"
/>
<path stroke="#151a3c" vector-effect="non-scaling-stroke" d="
  M 36.50 42.85
  Q 35.64 42.93 34.26 42.31"
/>
<path stroke="#3277a3" vector-effect="non-scaling-stroke" d="
  M 60.70 63.86
  Q 60.34 64.77 59.86 65.11
  A 0.66 0.66 0.0 0 1 58.94 64.97
  L 54.89 59.50
  A 2.11 2.10 60.7 0 0 52.42 58.80
  L 43.73 62.32"
/>
<path stroke="#1a2042" vector-effect="non-scaling-stroke" d="
  M 43.73 62.32
  Q 40.04 53.16 33.68 45.75"
/>
<path stroke="#256d99" vector-effect="non-scaling-stroke" d="
  M 37.43 85.94
  L 24.87 96.66"
/>
<path stroke="#2395cc" vector-effect="non-scaling-stroke" d="
  M 14.29 82.94
  L 10.77 82.89"
/>
<path stroke="#2395cc" vector-effect="non-scaling-stroke" d="
  M 10.54 82.85
  L 8.79 82.79"
/>
<path stroke="#2d6790" vector-effect="non-scaling-stroke" d="
  M 68.87 76.20
  Q 61.66 72.56 54.40 71.23
  A 1.05 1.03 -59.3 0 0 53.54 71.46
  L 49.37 75.07"
/>
<path stroke="#3cbaee" vector-effect="non-scaling-stroke" d="
  M 49.37 75.07
  Q 45.05 75.38 42.39 75.95
  Q 32.43 78.07 21.84 79.89
  C 17.96 80.55 13.68 82.84 9.69 81.52"
/>
<path stroke="#1b699d" vector-effect="non-scaling-stroke" d="
  M 77.34 23.81
  Q 75.95 27.96 75.79 31.92
  Q 75.25 44.88 75.91 55.24
  C 76.29 61.21 75.23 68.33 76.09 73.46
  C 76.53 76.10 76.20 78.79 76.26 81.76
  Q 76.27 82.14 75.53 82.17"
/>
<path stroke="#2784b5" vector-effect="non-scaling-stroke" d="
  M 75.53 82.17
  L 74.85 82.16"
/>
<path stroke="#1f537f" vector-effect="non-scaling-stroke" d="
  M 74.85 82.16
  Q 71.07 66.88 66.96 51.68
  Q 63.86 40.21 63.62 25.01"
/>
<path stroke="#4ecbef" vector-effect="non-scaling-stroke" d="
  M 75.92 82.30
  L 75.94 91.49"
/>
<path stroke="#3cbaee" vector-effect="non-scaling-stroke" d="
  M 75.94 91.49
  C 69.89 93.60 66.20 95.03 63.24 100.44
  A 0.76 0.74 -70.6 0 1 62.47 100.82
  L 56.95 99.90"
/>
<path stroke="#205d87" vector-effect="non-scaling-stroke" d="
  M 71.75 82.50
  L 56.95 99.90"
/>
<path stroke="#2d6790" vector-effect="non-scaling-stroke" d="
  M 56.95 99.90
  Q 56.62 100.30 56.31 100.49"
/>
<path stroke="#151a3c" vector-effect="non-scaling-stroke" d="
  M 56.31 100.49
  Q 50.00 95.70 43.39 91.39
  Q 39.98 89.17 37.43 85.94"
/>
<path stroke="#205d87" vector-effect="non-scaling-stroke" d="
  M 37.43 85.94
  L 49.37 75.07"
/>
<path stroke="#3277a3" vector-effect="non-scaling-stroke" d="
  M 56.31 100.49
  Q 55.72 101.64 54.60 102.23"
/>
<path stroke="#1e5a89" vector-effect="non-scaling-stroke" d="
  M 54.60 102.23
  L 30.87 100.97
  A 0.43 0.42 1.3 0 0 30.42 101.39
  L 30.42 101.67
  A 0.23 0.22 1.4 0 0 30.64 101.89
  L 54.04 103.13"
/>
<path stroke="#3277a3" vector-effect="non-scaling-stroke" d="
  M 54.04 103.13
  L 52.95 105.03"
/>
<path stroke="#1e5a89" vector-effect="non-scaling-stroke" d="
  M 52.95 105.03
  Q 50.79 105.56 48.30 105.26
  Q 45.00 104.87 43.67 104.92
  C 38.94 105.11 34.56 104.85 29.90 106.87"
/>
<path stroke="#67b8d7" vector-effect="non-scaling-stroke" d="
  M 88.43 58.79
  L 82.04 76.25"
/>
<path stroke="#255785" vector-effect="non-scaling-stroke" d="
  M 82.04 76.25
  L 79.71 82.37"
/>
<path stroke="#41b0d7" vector-effect="non-scaling-stroke" d="
  M 79.71 82.37
  L 75.92 82.30"
/>
<path stroke="#2395cc" vector-effect="non-scaling-stroke" d="
  M 75.92 82.30
  L 75.53 82.17"
/>
<path stroke="#81ddf9" vector-effect="non-scaling-stroke" d="
  M 76.03 92.29
  L 76.21 98.06"
/>
<path stroke="#348ebf" vector-effect="non-scaling-stroke" d="
  M 76.21 98.06
  Q 76.02 97.86 75.49 98.21"
/>
<path stroke="#3f7ca7" vector-effect="non-scaling-stroke" d="
  M 75.49 98.21
  Q 72.52 98.84 70.26 100.34"
/>
<path stroke="#2d6790" vector-effect="non-scaling-stroke" d="
  M 70.26 100.34
  Q 67.08 102.98 68.10 105.55
  C 69.38 108.76 72.82 110.00 75.95 110.52"
/>
<path stroke="#3f7ca7" vector-effect="non-scaling-stroke" d="
  M 75.95 110.52
  Q 76.75 110.63 76.37 110.41"
/>
<path stroke="#81ddf9" vector-effect="non-scaling-stroke" d="
  M 76.37 110.41
  Q 75.98 111.66 76.11 112.97"
/>
<path stroke="#5bd5f8" vector-effect="non-scaling-stroke" d="
  M 76.11 112.97
  L 76.31 120.33"
/>
<path stroke="#2d6790" vector-effect="non-scaling-stroke" d="
  M 76.31 120.33
  L 64.26 118.81
  A 3.17 3.16 74.1 0 1 62.20 117.66
  L 55.33 109.05"
/>
<path stroke="#316d97" vector-effect="non-scaling-stroke" d="
  M 55.33 109.05
  L 53.52 106.77"
/>
<path stroke="#35a7dd" vector-effect="non-scaling-stroke" d="
  M 53.52 106.77
  Q 52.77 105.92 52.95 105.03"
/>
<path stroke="#35a7dd" vector-effect="non-scaling-stroke" d="
  M 54.04 103.13
  Q 54.39 103.12 54.64 102.82
  Q 54.78 102.64 54.60 102.23"
/>
<path stroke="#92eefa" vector-effect="non-scaling-stroke" d="
  M 95.19 100.22
  Q 92.34 101.11 89.73 100.83
  A 1.46 1.45 78.0 0 1 88.63 100.11
  Q 84.77 93.33 76.98 92.05
  Q 76.52 91.98 76.03 92.29"
/>
<path stroke="#5bd5f8" vector-effect="non-scaling-stroke" d="
  M 76.03 92.29
  L 75.94 91.49"
/>
<path stroke="#1d4f7d" vector-effect="non-scaling-stroke" d="
  M 53.52 106.77
  L 50.17 106.93"
/>
<path stroke="#1e5a89" vector-effect="non-scaling-stroke" d="
  M 50.17 106.93
  Q 42.88 104.67 35.50 106.32
  Q 32.28 107.05 30.81 107.11"
/>
<path stroke="#47b8de" vector-effect="non-scaling-stroke" d="
  M 113.44 40.23
  Q 112.21 42.67 112.02 45.19
  A 1.18 1.16 -67.6 0 0 112.41 46.15
  L 116.37 49.62"
/>
<path stroke="#1c82bc" vector-effect="non-scaling-stroke" d="
  M 116.37 49.62
  Q 110.17 45.63 104.88 49.86
  Q 95.32 57.52 91.45 61.05
  A 1.18 1.18 0.0 0 1 90.58 61.36
  L 89.36 61.27"
/>
<path stroke="#6dbfdf" vector-effect="non-scaling-stroke" d="
  M 89.36 61.27
  Q 88.77 60.42 88.43 58.79"
/>
<path stroke="#1c82bc" vector-effect="non-scaling-stroke" d="
  M 88.43 58.79
  Q 90.59 47.59 91.43 35.44"
/>
<path stroke="#508da8" vector-effect="non-scaling-stroke" d="
  M 101.78 75.10
  L 114.17 86.57"
/>
<path stroke="#2a466e" vector-effect="non-scaling-stroke" d="
  M 114.17 86.57
  L 96.68 100.26
  A 1.92 1.88 -69.3 0 1 95.95 100.60
  L 95.45 100.70"
/>
<path stroke="#7695a8" vector-effect="non-scaling-stroke" d="
  M 95.45 100.70
  Q 95.08 100.37 95.19 100.22"
/>
<path stroke="#508da8" vector-effect="non-scaling-stroke" d="
  M 95.19 100.22
  L 79.71 82.37"
/>
<path stroke="#47b8de" vector-effect="non-scaling-stroke" d="
  M 115.96 18.45
  Q 106.91 22.33 100.30 29.34
  A 5.77 5.64 -85.5 0 1 99.59 29.96
  Q 95.75 32.63 92.78 36.01
  A 0.72 0.72 0.0 0 1 91.56 35.79
  L 91.43 35.44"
/>
<path stroke="#41b0d7" vector-effect="non-scaling-stroke" d="
  M 91.43 35.44
  L 93.59 25.77"
/>
<path stroke="#92eefa" vector-effect="non-scaling-stroke" d="
  M 137.73 82.86
  C 134.50 81.74 131.46 80.55 128.08 79.90
  Q 115.24 77.46 101.78 75.10"
/>
<path stroke="#7695a8" vector-effect="non-scaling-stroke" d="
  M 101.78 75.10
  L 97.94 71.47
  A 1.59 1.58 -29.7 0 0 96.48 71.08
  Q 89.24 72.75 82.04 76.25"
/>
<path stroke="#151030" vector-effect="non-scaling-stroke" d="
  M 55.33 109.05
  Q 50.45 110.14 48.22 114.18
  A 3.02 2.82 84.7 0 1 47.71 114.84
  Q 44.03 118.47 40.06 120.06"
/>
<path stroke="#1c375e" vector-effect="non-scaling-stroke" d="
  M 37.43 118.91
  Q 40.38 116.62 42.01 113.80"
/>
<path stroke="#1d4f7d" vector-effect="non-scaling-stroke" d="
  M 41.18 110.03
  C 42.50 108.56 46.40 107.80 48.37 107.29"
/>
<path stroke="#81ddf9" vector-effect="non-scaling-stroke" d="
  M 97.28 102.42
  Q 97.32 102.80 97.73 102.92"
/>
<path stroke="#81ddf9" vector-effect="non-scaling-stroke" d="
  M 99.38 105.51
  Q 99.11 106.28 98.26 106.58"
/>
<path stroke="#6ca1b9" vector-effect="non-scaling-stroke" d="
  M 98.26 106.58
  Q 97.89 107.25 97.99 106.83"
/>
<path stroke="#698598" vector-effect="non-scaling-stroke" d="
  M 97.99 106.83
  L 94.99 110.39"
/>
<path stroke="#92eefa" vector-effect="non-scaling-stroke" d="
  M 94.99 110.39
  Q 86.93 115.12 78.51 114.65
  Q 76.33 114.53 76.11 112.97"
/>
<path stroke="#7695a8" vector-effect="non-scaling-stroke" d="
  M 76.37 110.41
  Q 81.19 109.88 83.13 107.38
  Q 85.98 103.70 81.84 100.42"
/>
<path stroke="#6ca7c0" vector-effect="non-scaling-stroke" d="
  M 81.84 100.42
  Q 79.39 98.70 76.21 98.06"
/>
<path stroke="#221f40" vector-effect="non-scaling-stroke" d="
  M 75.99 102.57
  L 70.26 100.34"
/>
<path stroke="#2a466e" vector-effect="non-scaling-stroke" d="
  M 81.84 100.42
  L 75.99 102.57"
/>
<path stroke="#2a466e" vector-effect="non-scaling-stroke" d="
  M 75.99 102.57
  Q 75.93 101.79 76.05 98.75
  Q 76.07 98.22 75.49 98.21"
/>
<path stroke="#221f40" vector-effect="non-scaling-stroke" d="
  M 75.99 102.57
  L 76.37 109.80
  A 0.68 0.68 0.0 0 1 76.14 110.35
  L 75.95 110.52"
/>
<path stroke="#3e7891" vector-effect="non-scaling-stroke" d="
  M 76.31 120.33
  L 83.68 119.40"
/>
<path stroke="#1a2042" vector-effect="non-scaling-stroke" d="
  M 50.17 106.93
  L 48.37 107.29"
/>
<path stroke="#1e5a89" vector-effect="non-scaling-stroke" d="
  M 48.37 107.29
  Q 47.39 106.56 46.23 106.87
  Q 43.30 107.63 39.76 109.79"
/>
<path stroke="#67b8d7" vector-effect="non-scaling-stroke" d="
  M 140.79 81.79
  L 122.54 73.72
  A 0.33 0.33 0.0 0 1 122.62 73.09
  L 123.59 72.95
  A 0.36 0.36 0.0 0 0 123.61 72.25
  L 117.61 70.96
  A 0.39 0.39 0.0 0 1 117.47 70.26
  Q 117.72 70.06 119.26 69.96
  A 0.21 0.19 -88.1 0 0 119.44 69.78
  L 119.49 69.41
  A 0.43 0.43 0.0 0 0 119.11 68.93
  L 112.73 68.19
  A 0.59 0.59 0.0 0 1 112.71 67.02
  L 114.91 66.69
  A 0.69 0.69 0.0 0 0 114.89 65.33
  L 102.27 63.81
  A 0.02 0.01 -0.0 0 1 102.25 63.80
  L 102.20 63.51
  A 0.21 0.21 0.0 0 1 102.38 63.27
  L 104.39 62.96
  A 0.61 0.61 0.0 0 0 104.53 61.80
  L 97.30 58.77
  A 1.16 1.15 -60.6 0 0 95.92 59.16
  L 91.77 64.88
  A 0.59 0.59 0.0 0 1 90.74 64.76
  L 89.36 61.27"
/>
<path stroke="#a1e6c4" vector-effect="non-scaling-stroke" d="
  M 121.15 20.01
  Q 121.01 20.92 121.18 21.73"
/>
<path stroke="#a1e6c4" vector-effect="non-scaling-stroke" d="
  M 121.57 25.54
  L 121.64 26.21"
/>
<path stroke="#a1e6c4" vector-effect="non-scaling-stroke" d="
  M 121.75 27.20
  Q 121.42 28.91 121.97 29.29"
/>
<path stroke="#92eefa" vector-effect="non-scaling-stroke" d="
  M 121.97 29.29
  C 122.29 32.47 121.64 34.69 119.00 36.68
  Q 116.61 38.48 114.94 40.83
  Q 114.51 41.43 113.76 41.11
  Q 113.25 40.89 113.44 40.23"
/>
<path stroke="#6dbfdf" vector-effect="non-scaling-stroke" d="
  M 113.44 40.23
  Q 114.50 37.95 114.58 37.30
  Q 115.59 28.60 115.96 18.45"
/>
<path stroke="#92eefa" vector-effect="non-scaling-stroke" d="
  M 115.96 18.45
  Q 117.28 16.07 117.70 11.64"
/>
<path stroke="#7bdec4" vector-effect="non-scaling-stroke" d="
  M 122.24 31.43
  Q 121.94 32.81 122.31 34.06"
/>
<path stroke="#41b0d7" vector-effect="non-scaling-stroke" d="
  M 118.34 50.62
  Q 117.39 50.57 116.37 49.62"
/>
<path stroke="#469fc0" vector-effect="non-scaling-stroke" d="
  M 126.77 96.95
  L 114.17 86.57"
/>
<path stroke="#348ebf" vector-effect="non-scaling-stroke" d="
  M 121.85 106.95
  Q 118.40 105.44 116.69 105.33
  C 112.60 105.06 108.88 104.59 104.64 105.13
  Q 101.99 105.47 99.38 105.51"
/>
<path stroke="#6ca7c0" vector-effect="non-scaling-stroke" d="
  M 99.38 105.51
  L 97.73 102.92"
/>
<path stroke="#348ebf" vector-effect="non-scaling-stroke" d="
  M 97.73 102.92
  L 121.27 101.74
  A 0.02 0.02 0.0 0 0 121.29 101.72
  L 121.29 101.47
  A 0.26 0.26 0.0 0 0 121.04 101.21
  Q 109.12 100.83 97.28 102.42"
/>
<path stroke="#6ca7c0" vector-effect="non-scaling-stroke" d="
  M 97.28 102.42
  L 95.45 100.70"
/>
<path stroke="#348ebf" vector-effect="non-scaling-stroke" d="
  M 120.53 107.22
  Q 110.88 104.31 102.10 106.57"
/>
<path stroke="#3489b8" vector-effect="non-scaling-stroke" d="
  M 102.10 106.57
  Q 100.45 107.08 98.26 106.58"
/>
<path stroke="#3489b8" vector-effect="non-scaling-stroke" d="
  M 103.37 107.10
  L 110.76 110.02"
/>
<path stroke="#1c3157" vector-effect="non-scaling-stroke" d="
  M 105.01 110.77
  L 97.99 106.83"
/>
<path stroke="#151030" vector-effect="non-scaling-stroke" d="
  M 64.95 133.66
  L 86.54 120.68
  A 0.71 0.70 29.3 0 0 86.17 119.37
  L 83.68 119.40"
/>
<path stroke="#437e98" vector-effect="non-scaling-stroke" d="
  M 83.68 119.40
  L 88.22 118.53
  A 1.52 1.51 13.0 0 0 89.14 117.96
  L 94.99 110.39"
/>
<path stroke="#348ebf" vector-effect="non-scaling-stroke" d="
  M 112.03 110.01
  Q 107.78 106.97 103.37 107.10"
/>
<path stroke="#1f537f" vector-effect="non-scaling-stroke" d="
  M 103.37 107.10
  Q 102.83 107.18 102.10 106.57"
/>
<path stroke="#2b5f8d" vector-effect="non-scaling-stroke" d="
  M 111.04 26.28
  Q 108.97 28.18 106.16 29.52
  A 7.52 7.40 -77.9 0 0 104.52 30.60
  Q 102.27 32.54 97.84 35.17
  A 1.15 1.15 0.0 0 0 97.85 37.16
  L 108.56 43.34
  A 0.82 0.81 18.2 0 0 109.78 42.73
  L 111.65 26.59
  A 0.37 0.37 0.0 0 0 111.04 26.28"
/>
<path stroke="#729475" vector-effect="non-scaling-stroke" d="
  M 94.95 82.16
  Q 93.08 83.21 91.17 82.29
  A 1.61 1.55 84.3 0 0 89.27 84.69
  C 90.55 86.51 95.00 85.82 96.52 84.97
  C 98.05 84.11 100.95 80.66 100.06 78.63
  A 1.61 1.55 37.0 0 0 97.02 79.00
  Q 96.81 81.11 94.95 82.16"
/>
<path stroke="#4d705c" vector-effect="non-scaling-stroke" d="
  M 55.99 82.17
  Q 54.14 81.11 53.95 79.00
  A 1.61 1.55 -36.5 0 0 50.92 78.60
  C 50.02 80.63 52.89 84.10 54.40 84.97
  C 55.91 85.83 60.36 86.56 61.65 84.75
  A 1.61 1.55 -83.8 0 0 59.78 82.34
  Q 57.86 83.24 55.99 82.17"
/>
</g>
<path fill="#49c4f7" d="
  M 25.28 10.92
  Q 26.08 14.65 28.56 18.16
  Q 28.02 24.15 28.98 29.82
  C 29.45 32.60 29.40 34.51 29.60 36.92
  A 1.92 1.70 -63.4 0 0 29.76 37.52
  L 31.08 40.28
  L 31.17 41.80
  A 0.47 0.47 0.0 0 1 30.29 42.05
  Q 28.49 38.63 24.92 36.84
  Q 23.10 35.93 21.77 31.87
  L 22.28 28.30
  Q 22.85 27.78 22.46 26.79
  L 22.57 25.79
  Q 22.72 25.07 22.60 24.24
  L 24.04 10.70
  A 0.33 0.33 0.0 0 1 24.50 10.44
  Q 25.15 10.74 25.28 10.92
  Z"
/>
<path fill="#b8f5fa" d="
  M 121.15 20.01
  Q 121.01 20.92 121.18 21.73
  L 121.57 25.54
  L 121.64 26.21
  L 121.75 27.20
  Q 121.42 28.91 121.97 29.29
  C 122.29 32.47 121.64 34.69 119.00 36.68
  Q 116.61 38.48 114.94 40.83
  Q 114.51 41.43 113.76 41.11
  Q 113.25 40.89 113.44 40.23
  Q 114.50 37.95 114.58 37.30
  Q 115.59 28.60 115.96 18.45
  Q 117.28 16.07 117.70 11.64
  L 119.55 10.67
  A 0.30 0.29 -17.4 0 1 119.98 10.89
  L 121.15 20.01
  Z"
/>
<path fill="#6ce6f9" d="
  M 50.89 26.02
  Q 52.44 31.18 52.61 36.63
  Q 41.64 26.75 35.06 21.94
  Q 33.83 21.04 28.56 18.16
  Q 26.08 14.65 25.28 10.92
  L 50.89 26.02
  Z"
/>
<path fill="#6ce6f9" d="
  M 117.70 11.64
  Q 117.28 16.07 115.96 18.45
  Q 106.91 22.33 100.30 29.34
  A 5.77 5.64 -85.5 0 1 99.59 29.96
  Q 95.75 32.63 92.78 36.01
  A 0.72 0.72 0.0 0 1 91.56 35.79
  L 91.43 35.44
  L 93.59 25.77
  L 117.70 11.64
  Z"
/>
<path fill="#1f5886" d="
  M 28.56 18.16
  Q 33.83 21.04 35.06 21.94
  Q 41.64 26.75 52.61 36.63
  L 48.13 36.52
  L 33.41 26.79
  A 0.45 0.44 14.2 0 0 32.72 27.20
  L 34.26 42.31
  Q 34.26 44.20 33.68 45.75
  L 32.74 46.25
  Q 32.41 43.09 31.08 40.28
  L 29.76 37.52
  A 1.92 1.70 -63.4 0 1 29.60 36.92
  C 29.40 34.51 29.45 32.60 28.98 29.82
  Q 28.02 24.15 28.56 18.16
  Z"
/>
<path fill="#2189c3" d="
  M 115.96 18.45
  Q 115.59 28.60 114.58 37.30
  Q 114.50 37.95 113.44 40.23
  Q 112.21 42.67 112.02 45.19
  A 1.18 1.16 -67.6 0 0 112.41 46.15
  L 116.37 49.62
  Q 110.17 45.63 104.88 49.86
  Q 95.32 57.52 91.45 61.05
  A 1.18 1.18 0.0 0 1 90.58 61.36
  L 89.36 61.27
  Q 88.77 60.42 88.43 58.79
  Q 90.59 47.59 91.43 35.44
  L 91.56 35.79
  A 0.72 0.72 0.0 0 0 92.78 36.01
  Q 95.75 32.63 99.59 29.96
  A 5.77 5.64 -85.5 0 0 100.30 29.34
  Q 106.91 22.33 115.96 18.45
  Z
  M 111.04 26.28
  Q 108.97 28.18 106.16 29.52
  A 7.52 7.40 -77.9 0 0 104.52 30.60
  Q 102.27 32.54 97.84 35.17
  A 1.15 1.15 0.0 0 0 97.85 37.16
  L 108.56 43.34
  A 0.82 0.81 18.2 0 0 109.78 42.73
  L 111.65 26.59
  A 0.37 0.37 0.0 0 0 111.04 26.28
  Z"
/>
<path fill="#89d68e" d="
  M 121.18 21.73
  Q 121.01 20.92 121.15 20.01
  L 121.18 21.73
  Z"
/>
<path fill="#1f5886" d="
  M 77.34 23.81
  Q 75.95 27.96 75.79 31.92
  Q 75.25 44.88 75.91 55.24
  C 76.29 61.21 75.23 68.33 76.09 73.46
  C 76.53 76.10 76.20 78.79 76.26 81.76
  Q 76.27 82.14 75.53 82.17
  L 74.85 82.16
  Q 71.07 66.88 66.96 51.68
  Q 63.86 40.21 63.62 25.01
  L 77.34 23.81
  Z"
/>
<path fill="#167ab4" d="
  M 77.34 23.81
  L 93.59 25.77
  L 91.43 35.44
  Q 90.59 47.59 88.43 58.79
  L 82.04 76.25
  L 79.71 82.37
  L 75.92 82.30
  L 75.53 82.17
  Q 76.27 82.14 76.26 81.76
  C 76.20 78.79 76.53 76.10 76.09 73.46
  C 75.23 68.33 76.29 61.21 75.91 55.24
  Q 75.25 44.88 75.79 31.92
  Q 75.95 27.96 77.34 23.81
  Z"
/>
<path fill="#167ab4" d="
  M 22.60 24.24
  Q 22.72 25.07 22.57 25.79
  L 22.60 24.24
  Z"
/>
<path fill="#1f4d78" d="
  M 63.62 25.01
  Q 63.86 40.21 66.96 51.68
  Q 71.07 66.88 74.85 82.16
  L 71.75 82.50
  Q 71.07 78.19 68.87 76.20
  Q 69.23 75.74 69.14 75.49
  Q 65.96 67.36 63.21 59.26
  A 0.44 0.43 45.6 0 0 62.39 59.25
  L 60.70 63.86
  Q 58.88 60.81 54.63 57.90
  Q 49.01 54.04 36.50 42.85
  L 48.13 36.52
  L 52.61 36.63
  Q 52.44 31.18 50.89 26.02
  L 63.62 25.01
  Z"
/>
<path fill="#89d68e" d="
  M 121.64 26.21
  L 121.57 25.54
  L 121.64 26.21
  Z"
/>
<path fill="#343456" d="
  M 111.04 26.28
  A 0.37 0.37 0.0 0 1 111.65 26.59
  L 109.78 42.73
  A 0.82 0.81 18.2 0 1 108.56 43.34
  L 97.85 37.16
  A 1.15 1.15 0.0 0 1 97.84 35.17
  Q 102.27 32.54 104.52 30.60
  A 7.52 7.40 -77.9 0 1 106.16 29.52
  Q 108.97 28.18 111.04 26.28
  Z"
/>
<path fill="#2189c3" d="
  M 22.46 26.79
  Q 22.85 27.78 22.28 28.30
  L 22.46 26.79
  Z"
/>
<path fill="#100a29" d="
  M 48.13 36.52
  L 36.50 42.85
  Q 35.64 42.93 34.26 42.31
  L 32.72 27.20
  A 0.45 0.44 14.2 0 1 33.41 26.79
  L 48.13 36.52
  Z"
/>
<path fill="#89d68e" d="
  M 121.97 29.29
  Q 121.42 28.91 121.75 27.20
  Q 122.21 28.30 121.97 29.29
  Z"
/>
<path fill="#6ce6f9" d="
  M 122.24 31.43
  Q 121.94 32.81 122.31 34.06
  L 118.34 50.62
  Q 117.39 50.57 116.37 49.62
  L 112.41 46.15
  A 1.18 1.16 -67.6 0 1 112.02 45.19
  Q 112.21 42.67 113.44 40.23
  Q 113.25 40.89 113.76 41.11
  Q 114.51 41.43 114.94 40.83
  Q 116.61 38.48 119.00 36.68
  C 121.64 34.69 122.29 32.47 121.97 29.29
  Q 122.36 30.34 122.24 31.43
  Z"
/>
<path fill="#89d68e" d="
  M 122.31 34.06
  Q 121.94 32.81 122.24 31.43
  Q 122.76 32.64 122.31 34.06
  Z"
/>
<path fill="#2fb0e4" d="
  M 21.77 31.87
  Q 23.10 35.93 24.92 36.84
  Q 28.49 38.63 30.29 42.05
  A 0.47 0.47 0.0 0 0 31.17 41.80
  L 31.08 40.28
  Q 32.41 43.09 32.74 46.25
  L 26.52 51.16
  L 21.77 31.87
  Z"
/>
<path fill="#1a2a4e" d="
  M 36.50 42.85
  Q 49.01 54.04 54.63 57.90
  Q 58.88 60.81 60.70 63.86
  Q 60.34 64.77 59.86 65.11
  A 0.66 0.66 0.0 0 1 58.94 64.97
  L 54.89 59.50
  A 2.11 2.10 60.7 0 0 52.42 58.80
  L 43.73 62.32
  Q 40.04 53.16 33.68 45.75
  Q 34.26 44.20 34.26 42.31
  Q 35.64 42.93 36.50 42.85
  Z"
/>
<path fill="#191536" d="
  M 43.73 62.32
  Q 44.86 63.36 46.48 63.43
  A 0.21 0.20 89.9 0 1 46.67 63.63
  L 46.67 63.64
  A 0.06 0.05 -7.0 0 1 46.62 63.69
  L 33.76 65.67
  A 0.57 0.57 0.0 0 0 33.76 66.80
  Q 36.30 67.19 36.40 67.28
  A 0.42 0.42 0.0 0 1 36.18 67.99
  L 29.69 69.19
  A 0.06 0.06 0.0 0 0 29.64 69.25
  L 29.64 69.49
  A 0.41 0.40 90.0 0 0 30.02 69.88
  Q 32.59 70.00 31.49 70.83
  A 0.37 0.33 14.9 0 1 31.35 70.90
  L 25.56 72.25
  A 0.42 0.41 -48.1 0 0 25.60 73.07
  L 26.79 73.21
  A 0.35 0.35 0.0 0 1 26.89 73.88
  L 9.69 81.52
  L 7.82 82.34
  Q 7.80 81.62 7.91 81.43
  Q 17.09 65.92 26.52 51.16
  L 32.74 46.25
  L 33.68 45.75
  Q 40.04 53.16 43.73 62.32
  Z"
/>
<path fill="#167ab4" d="
  M 116.37 49.62
  Q 117.39 50.57 118.34 50.62
  Q 130.17 65.69 140.79 81.79
  L 122.54 73.72
  A 0.33 0.33 0.0 0 1 122.62 73.09
  L 123.59 72.95
  A 0.36 0.36 0.0 0 0 123.61 72.25
  L 117.61 70.96
  A 0.39 0.39 0.0 0 1 117.47 70.26
  Q 117.72 70.06 119.26 69.96
  A 0.21 0.19 -88.1 0 0 119.44 69.78
  L 119.49 69.41
  A 0.43 0.43 0.0 0 0 119.11 68.93
  L 112.73 68.19
  A 0.59 0.59 0.0 0 1 112.71 67.02
  L 114.91 66.69
  A 0.69 0.69 0.0 0 0 114.89 65.33
  L 102.27 63.81
  A 0.02 0.01 -0.0 0 1 102.25 63.80
  L 102.20 63.51
  A 0.21 0.21 0.0 0 1 102.38 63.27
  L 104.39 62.96
  A 0.61 0.61 0.0 0 0 104.53 61.80
  L 97.30 58.77
  A 1.16 1.15 -60.6 0 0 95.92 59.16
  L 91.77 64.88
  A 0.59 0.59 0.0 0 1 90.74 64.76
  L 89.36 61.27
  L 90.58 61.36
  A 1.18 1.18 0.0 0 0 91.45 61.05
  Q 95.32 57.52 104.88 49.86
  Q 110.17 45.63 116.37 49.62
  Z"
/>
<path fill="#49c4f7" d="
  M 60.70 63.86
  L 62.39 59.25
  A 0.44 0.43 45.6 0 1 63.21 59.26
  Q 65.96 67.36 69.14 75.49
  Q 69.23 75.74 68.87 76.20
  Q 61.66 72.56 54.40 71.23
  A 1.05 1.03 -59.3 0 0 53.54 71.46
  L 49.37 75.07
  Q 45.05 75.38 42.39 75.95
  Q 32.43 78.07 21.84 79.89
  C 17.96 80.55 13.68 82.84 9.69 81.52
  L 26.89 73.88
  A 0.35 0.35 0.0 0 0 26.79 73.21
  L 25.60 73.07
  A 0.42 0.41 -48.1 0 1 25.56 72.25
  L 31.35 70.90
  A 0.37 0.33 14.9 0 0 31.49 70.83
  Q 32.59 70.00 30.02 69.88
  A 0.41 0.40 90.0 0 1 29.64 69.49
  L 29.64 69.25
  A 0.06 0.06 0.0 0 1 29.69 69.19
  L 36.18 67.99
  A 0.42 0.42 0.0 0 0 36.40 67.28
  Q 36.30 67.19 33.76 66.80
  A 0.57 0.57 0.0 0 1 33.76 65.67
  L 46.62 63.69
  A 0.06 0.05 -7.0 0 0 46.67 63.64
  L 46.67 63.63
  A 0.21 0.20 89.9 0 0 46.48 63.43
  Q 44.86 63.36 43.73 62.32
  L 52.42 58.80
  A 2.11 2.10 60.7 0 1 54.89 59.50
  L 58.94 64.97
  A 0.66 0.66 0.0 0 0 59.86 65.11
  Q 60.34 64.77 60.70 63.86
  Z"
/>
<path fill="#b8f5fa" d="
  M 140.79 81.79
  Q 141.50 83.05 137.73 82.86
  C 134.50 81.74 131.46 80.55 128.08 79.90
  Q 115.24 77.46 101.78 75.10
  L 97.94 71.47
  A 1.59 1.58 -29.7 0 0 96.48 71.08
  Q 89.24 72.75 82.04 76.25
  L 88.43 58.79
  Q 88.77 60.42 89.36 61.27
  L 90.74 64.76
  A 0.59 0.59 0.0 0 0 91.77 64.88
  L 95.92 59.16
  A 1.16 1.15 -60.6 0 1 97.30 58.77
  L 104.53 61.80
  A 0.61 0.61 0.0 0 1 104.39 62.96
  L 102.38 63.27
  A 0.21 0.21 0.0 0 0 102.20 63.51
  L 102.25 63.80
  A 0.02 0.01 0.0 0 0 102.27 63.81
  L 114.89 65.33
  A 0.69 0.69 0.0 0 1 114.91 66.69
  L 112.71 67.02
  A 0.59 0.59 0.0 0 0 112.73 68.19
  L 119.11 68.93
  A 0.43 0.43 0.0 0 1 119.49 69.41
  L 119.44 69.78
  A 0.21 0.19 -88.1 0 1 119.26 69.96
  Q 117.72 70.06 117.47 70.26
  A 0.39 0.39 0.0 0 0 117.61 70.96
  L 123.61 72.25
  A 0.36 0.36 0.0 0 1 123.59 72.95
  L 122.62 73.09
  A 0.33 0.33 0.0 0 0 122.54 73.72
  L 140.79 81.79
  Z"
/>
<path fill="#343456" d="
  M 101.78 75.10
  L 114.17 86.57
  L 96.68 100.26
  A 1.92 1.88 -69.3 0 1 95.95 100.60
  L 95.45 100.70
  Q 95.08 100.37 95.19 100.22
  L 79.71 82.37
  L 82.04 76.25
  Q 89.24 72.75 96.48 71.08
  A 1.59 1.58 -29.7 0 1 97.94 71.47
  L 101.78 75.10
  Z
  M 94.95 82.16
  Q 93.08 83.21 91.17 82.29
  A 1.61 1.55 84.3 0 0 89.27 84.69
  C 90.55 86.51 95.00 85.82 96.52 84.97
  C 98.05 84.11 100.95 80.66 100.06 78.63
  A 1.61 1.55 37.0 0 0 97.02 79.00
  Q 96.81 81.11 94.95 82.16
  Z"
/>
<path fill="#100a29" d="
  M 68.87 76.20
  Q 71.07 78.19 71.75 82.50
  L 56.95 99.90
  Q 56.62 100.30 56.31 100.49
  Q 50.00 95.70 43.39 91.39
  Q 39.98 89.17 37.43 85.94
  L 49.37 75.07
  L 53.54 71.46
  A 1.05 1.03 -59.3 0 1 54.40 71.23
  Q 61.66 72.56 68.87 76.20
  Z
  M 55.99 82.17
  Q 54.14 81.11 53.95 79.00
  A 1.61 1.55 -36.5 0 0 50.92 78.60
  C 50.02 80.63 52.89 84.10 54.40 84.97
  C 55.91 85.83 60.36 86.56 61.65 84.75
  A 1.61 1.55 -83.8 0 0 59.78 82.34
  Q 57.86 83.24 55.99 82.17
  Z"
/>
<path fill="#2fb0e4" d="
  M 49.37 75.07
  L 37.43 85.94
  L 24.87 96.66
  L 8.60 99.74
  A 0.29 0.29 0.0 0 1 8.37 99.22
  L 18.63 91.63
  A 0.64 0.64 0.0 0 0 18.25 90.47
  L 11.36 90.47
  A 0.33 0.33 0.0 0 1 11.18 89.87
  L 19.34 84.45
  A 0.62 0.62 0.0 0 0 19.04 83.31
  L 14.29 82.94
  L 10.77 82.89
  Q 10.65 82.87 10.54 82.85
  L 8.79 82.79
  Q 7.29 82.69 7.82 82.34
  L 9.69 81.52
  C 13.68 82.84 17.96 80.55 21.84 79.89
  Q 32.43 78.07 42.39 75.95
  Q 45.05 75.38 49.37 75.07
  Z"
/>
<path fill="#6ce6f9" d="
  M 137.73 82.86
  L 131.68 83.16
  A 0.78 0.78 0.0 0 0 131.33 84.61
  L 139.72 89.46
  A 0.51 0.51 0.0 0 1 139.47 90.41
  L 133.23 90.41
  A 0.72 0.72 0.0 0 0 132.81 91.72
  L 143.06 99.16
  A 0.28 0.28 0.0 0 1 142.84 99.66
  Q 137.44 98.71 131.14 97.08
  Q 129.72 96.72 126.77 96.95
  L 114.17 86.57
  L 101.78 75.10
  Q 115.24 77.46 128.08 79.90
  C 131.46 80.55 134.50 81.74 137.73 82.86
  Z"
/>
<path fill="#89d68e" d="
  M 55.99 82.17
  Q 57.86 83.24 59.78 82.34
  A 1.61 1.55 -83.8 0 1 61.65 84.75
  C 60.36 86.56 55.91 85.83 54.40 84.97
  C 52.89 84.10 50.02 80.63 50.92 78.60
  A 1.61 1.55 -36.5 0 1 53.95 79.00
  Q 54.14 81.11 55.99 82.17
  Z"
/>
<path fill="#aff494" d="
  M 96.52 84.97
  C 95.00 85.82 90.55 86.51 89.27 84.69
  A 1.61 1.55 84.3 0 1 91.17 82.29
  Q 93.08 83.21 94.95 82.16
  Q 96.81 81.11 97.02 79.00
  A 1.61 1.55 37.0 0 1 100.06 78.63
  C 100.95 80.66 98.05 84.11 96.52 84.97
  Z"
/>
<path fill="#2fb0e4" d="
  M 74.85 82.16
  L 75.53 82.17
  L 75.92 82.30
  L 75.94 91.49
  C 69.89 93.60 66.20 95.03 63.24 100.44
  A 0.76 0.74 -70.6 0 1 62.47 100.82
  L 56.95 99.90
  L 71.75 82.50
  L 74.85 82.16
  Z"
/>
<path fill="#6ce6f9" d="
  M 79.71 82.37
  L 95.19 100.22
  Q 92.34 101.11 89.73 100.83
  A 1.46 1.45 78.0 0 1 88.63 100.11
  Q 84.77 93.33 76.98 92.05
  Q 76.52 91.98 76.03 92.29
  L 75.94 91.49
  L 75.92 82.30
  L 79.71 82.37
  Z"
/>
<path fill="#167ab4" d="
  M 10.54 82.85
  Q 9.62 82.97 8.79 82.79
  L 10.54 82.85
  Z"
/>
<path fill="#167ab4" d="
  M 14.29 82.94
  L 10.77 82.89
  L 14.29 82.94
  Z"
/>
<path fill="#1a2a4e" d="
  M 37.43 85.94
  Q 39.98 89.17 43.39 91.39
  Q 50.00 95.70 56.31 100.49
  Q 55.72 101.64 54.60 102.23
  L 30.87 100.97
  A 0.43 0.42 1.3 0 0 30.42 101.39
  L 30.42 101.67
  A 0.23 0.22 1.4 0 0 30.64 101.89
  L 54.04 103.13
  L 52.95 105.03
  Q 50.79 105.56 48.30 105.26
  Q 45.00 104.87 43.67 104.92
  C 38.94 105.11 34.56 104.85 29.90 106.87
  L 18.30 103.17
  A 0.51 0.51 0.0 0 1 18.13 102.30
  L 24.87 96.66
  L 37.43 85.94
  Z"
/>
<path fill="#1f5886" d="
  M 126.77 96.95
  L 132.88 102.39
  A 0.50 0.50 0.0 0 1 132.71 103.23
  L 121.85 106.95
  Q 118.40 105.44 116.69 105.33
  C 112.60 105.06 108.88 104.59 104.64 105.13
  Q 101.99 105.47 99.38 105.51
  L 97.73 102.92
  L 121.27 101.74
  A 0.02 0.02 0.0 0 0 121.29 101.72
  L 121.29 101.47
  A 0.26 0.26 0.0 0 0 121.04 101.21
  Q 109.12 100.83 97.28 102.42
  L 95.45 100.70
  L 95.95 100.60
  A 1.92 1.88 -69.3 0 0 96.68 100.26
  L 114.17 86.57
  L 126.77 96.95
  Z"
/>
<path fill="#49c4f7" d="
  M 75.94 91.49
  L 76.03 92.29
  L 76.21 98.06
  Q 76.02 97.86 75.49 98.21
  Q 72.52 98.84 70.26 100.34
  Q 67.08 102.98 68.10 105.55
  C 69.38 108.76 72.82 110.00 75.95 110.52
  Q 76.75 110.63 76.37 110.41
  Q 75.98 111.66 76.11 112.97
  L 76.31 120.33
  L 64.26 118.81
  A 3.17 3.16 74.1 0 1 62.20 117.66
  L 55.33 109.05
  L 53.52 106.77
  Q 52.77 105.92 52.95 105.03
  L 54.04 103.13
  Q 54.39 103.12 54.64 102.82
  Q 54.78 102.64 54.60 102.23
  Q 55.72 101.64 56.31 100.49
  Q 56.62 100.30 56.95 99.90
  L 62.47 100.82
  A 0.76 0.74 -70.6 0 0 63.24 100.44
  C 66.20 95.03 69.89 93.60 75.94 91.49
  Z"
/>
<path fill="#b8f5fa" d="
  M 95.19 100.22
  Q 95.08 100.37 95.45 100.70
  L 97.28 102.42
  Q 97.32 102.80 97.73 102.92
  L 99.38 105.51
  Q 99.11 106.28 98.26 106.58
  Q 97.89 107.25 97.99 106.83
  L 94.99 110.39
  Q 86.93 115.12 78.51 114.65
  Q 76.33 114.53 76.11 112.97
  Q 75.98 111.66 76.37 110.41
  Q 81.19 109.88 83.13 107.38
  Q 85.98 103.70 81.84 100.42
  Q 79.39 98.70 76.21 98.06
  L 76.03 92.29
  Q 76.52 91.98 76.98 92.05
  Q 84.77 93.33 88.63 100.11
  A 1.46 1.45 78.0 0 0 89.73 100.83
  Q 92.34 101.11 95.19 100.22
  Z"
/>
<path fill="#1f5886" d="
  M 76.21 98.06
  Q 79.39 98.70 81.84 100.42
  L 75.99 102.57
  Q 75.93 101.79 76.05 98.75
  Q 76.07 98.22 75.49 98.21
  Q 76.02 97.86 76.21 98.06
  Z"
/>
<path fill="#343456" d="
  M 75.49 98.21
  Q 76.07 98.22 76.05 98.75
  Q 75.93 101.79 75.99 102.57
  L 70.26 100.34
  Q 72.52 98.84 75.49 98.21
  Z"
/>
<path fill="#100a29" d="
  M 70.26 100.34
  L 75.99 102.57
  L 76.37 109.80
  A 0.68 0.68 0.0 0 1 76.14 110.35
  L 75.95 110.52
  C 72.82 110.00 69.38 108.76 68.10 105.55
  Q 67.08 102.98 70.26 100.34
  Z"
/>
<path fill="#343456" d="
  M 81.84 100.42
  Q 85.98 103.70 83.13 107.38
  Q 81.19 109.88 76.37 110.41
  Q 76.75 110.63 75.95 110.52
  L 76.14 110.35
  A 0.68 0.68 0.0 0 0 76.37 109.80
  L 75.99 102.57
  L 81.84 100.42
  Z"
/>
<path fill="#2189c3" d="
  M 54.60 102.23
  Q 54.78 102.64 54.64 102.82
  Q 54.39 103.12 54.04 103.13
  L 30.64 101.89
  A 0.23 0.22 1.4 0 1 30.42 101.67
  L 30.42 101.39
  A 0.43 0.42 1.3 0 1 30.87 100.97
  L 54.60 102.23
  Z"
/>
<path fill="#49c4f7" d="
  M 97.73 102.92
  Q 97.32 102.80 97.28 102.42
  Q 109.12 100.83 121.04 101.21
  A 0.26 0.26 0.0 0 1 121.29 101.47
  L 121.29 101.72
  A 0.02 0.02 0.0 0 1 121.27 101.74
  L 97.73 102.92
  Z"
/>
<path fill="#2189c3" d="
  M 52.95 105.03
  Q 52.77 105.92 53.52 106.77
  L 50.17 106.93
  Q 42.88 104.67 35.50 106.32
  Q 32.28 107.05 30.81 107.11
  L 29.90 106.87
  C 34.56 104.85 38.94 105.11 43.67 104.92
  Q 45.00 104.87 48.30 105.26
  Q 50.79 105.56 52.95 105.03
  Z"
/>
<path fill="#49c4f7" d="
  M 121.85 106.95
  Q 121.01 106.89 120.53 107.22
  Q 110.88 104.31 102.10 106.57
  Q 100.45 107.08 98.26 106.58
  Q 99.11 106.28 99.38 105.51
  Q 101.99 105.47 104.64 105.13
  C 108.88 104.59 112.60 105.06 116.69 105.33
  Q 118.40 105.44 121.85 106.95
  Z"
/>
<path fill="#1a2a4e" d="
  M 50.17 106.93
  L 48.37 107.29
  Q 47.39 106.56 46.23 106.87
  Q 43.30 107.63 39.76 109.79
  L 30.81 107.11
  Q 32.28 107.05 35.50 106.32
  Q 42.88 104.67 50.17 106.93
  Z"
/>
<path fill="#1f5886" d="
  M 120.53 107.22
  L 112.03 110.01
  Q 107.78 106.97 103.37 107.10
  Q 102.83 107.18 102.10 106.57
  Q 110.88 104.31 120.53 107.22
  Z"
/>
<path fill="#191536" d="
  M 53.52 106.77
  L 55.33 109.05
  Q 50.45 110.14 48.22 114.18
  A 3.02 2.82 84.7 0 1 47.71 114.84
  Q 44.03 118.47 40.06 120.06
  Q 38.83 119.21 37.43 118.91
  Q 40.38 116.62 42.01 113.80
  L 43.89 111.24
  A 0.40 0.39 -65.8 0 0 43.66 110.62
  L 41.18 110.03
  C 42.50 108.56 46.40 107.80 48.37 107.29
  L 50.17 106.93
  L 53.52 106.77
  Z"
/>
<path fill="#1f4d78" d="
  M 98.26 106.58
  Q 100.45 107.08 102.10 106.57
  Q 102.83 107.18 103.37 107.10
  L 110.76 110.02
  L 105.01 110.77
  L 97.99 106.83
  Q 97.89 107.25 98.26 106.58
  Z"
/>
<path fill="#2189c3" d="
  M 48.37 107.29
  C 46.40 107.80 42.50 108.56 41.18 110.03
  L 39.76 109.79
  Q 43.30 107.63 46.23 106.87
  Q 47.39 106.56 48.37 107.29
  Z"
/>
<path fill="#191536" d="
  M 97.99 106.83
  L 105.01 110.77
  L 109.11 114.90
  A 0.59 0.58 51.0 0 1 109.02 115.80
  L 74.92 138.45
  A 0.87 0.86 -47.4 0 1 74.04 138.49
  L 64.95 133.66
  L 86.54 120.68
  A 0.71 0.70 29.3 0 0 86.17 119.37
  L 83.68 119.40
  L 88.22 118.53
  A 1.52 1.51 13.0 0 0 89.14 117.96
  L 94.99 110.39
  L 97.99 106.83
  Z"
/>
<path fill="#49c4f7" d="
  M 112.03 110.01
  L 110.76 110.02
  L 103.37 107.10
  Q 107.78 106.97 112.03 110.01
  Z"
/>
<path fill="#100a29" d="
  M 76.31 120.33
  L 83.68 119.40
  L 86.17 119.37
  A 0.71 0.70 29.3 0 1 86.54 120.68
  L 64.95 133.66
  L 40.06 120.06
  Q 44.03 118.47 47.71 114.84
  A 3.02 2.82 84.7 0 0 48.22 114.18
  Q 50.45 110.14 55.33 109.05
  L 62.20 117.66
  A 3.17 3.16 74.1 0 0 64.26 118.81
  L 76.31 120.33
  Z"
/>
<path fill="#6ce6f9" d="
  M 94.99 110.39
  L 89.14 117.96
  A 1.52 1.51 13.0 0 1 88.22 118.53
  L 83.68 119.40
  L 76.31 120.33
  L 76.11 112.97
  Q 76.33 114.53 78.51 114.65
  Q 86.93 115.12 94.99 110.39
  Z"
/>
<path fill="#1f5886" d="
  M 42.01 113.80
  Q 40.38 116.62 37.43 118.91
  Q 38.78 115.95 42.01 113.80
  Z"
/>
</svg>
